<svg width="176" xmlns="http://www.w3.org/2000/svg" height="170" id="screenshot-ff9836e5-e3fe-804b-8007-e1f310a73caf" viewBox="0 0 176 170" xmlns:xlink="http://www.w3.org/1999/xlink" fill="none" version="1.1"><g id="shape-ff9836e5-e3fe-804b-8007-e1f310a73caf" rx="0" ry="0"><g id="shape-ff9836e5-e3fe-804b-8007-e1ef1635f3c3"><g class="fills" id="fills-ff9836e5-e3fe-804b-8007-e1ef1635f3c3"><path d="M2,170L1,26L73.99114990234375,95.8585205078125L86,106L175,20L176,168L4,170L176,0"/></g><g id="strokes-36206ae0-f77a-805c-8007-e1f32750ff01-ff9836e5-e3fe-804b-8007-e1ef1635f3c3" class="strokes"><g class="stroke-shape"><path d="M2,170L1,26L73.99114990234375,95.8585205078125L86,106L175,20L176,168L4,170L176,0" style="fill: none; stroke-width: 5; stroke: rgb(0, 0, 0); stroke-opacity: 0.754902;"/></g></g></g><g id="shape-ff9836e5-e3fe-804b-8007-e1f12f58035a"><g class="fills" id="fills-ff9836e5-e3fe-804b-8007-e1f12f58035a"><path d="M175,23L0,24L1,170L175,168L175,23L86,107"/></g><g id="strokes-36206ae0-f77a-805c-8007-e1f3275229e7-ff9836e5-e3fe-804b-8007-e1f12f58035a" class="strokes"><g class="stroke-shape"><path d="M175,23L0,24L1,170L175,168L175,23L86,107" style="fill: none; stroke-width: 5; stroke: rgb(185, 31, 31); stroke-opacity: 1;"/></g></g></g></g></svg>